<svg xmlns="http://www.w3.org/2000/svg" viewBox="0 0 642.72 220.68"><defs><style>.cls-1{fill:#323232;}.cls-2{fill:#5c9a33;}</style></defs><g id="图层_2" data-name="图层 2"><g id="图层_1-2" data-name="图层 1"><path class="cls-1" d="M289.32,146l.17-23.15H255.11l.52-57h34.5l.2-9.53H303l-.08,9.53h34.37l-.52,57h-34.5l0,14.5h38.39l-4,8.65Zm-21.94-31.5h22.33l.13-16.29H267.51Zm.22-24.73h22.33L290,74.3H267.83Zm34.86,24.73h22.09l.14-16.29H302.6Zm.11-24.73h22.21L325,74.3H302.79Z"/><path class="cls-1" d="M381.33,148l-3.07-10.23h11.58l.39-35.57H351.72l.15-10h38.51l.09-9.44,23.46-13.81H359l.14-10h75.25l-.12,10.23L402.94,87.41l0,4.77h38.63l-.15,10H402.75l-.39,45.8Z"/><path class="cls-1" d="M469.49,148.31l.35-37h-2l-8.45,33.29h-7l6.44-33.29H454V102h16.07L470,95.36h11.46l-.18,6.66h14.17v9.33H481.3l-.47,37Zm21.7-52.65.26-23.35h-7.91L465.73,93.07H454.39l15.8-20.76H457l.08-9.54h34.38l.17-6.75h12.64l-.05,6.75h34.49l0,9.54H525.47l15.39,20.76H529.75L512.48,72.31H504l-.26,23.35Zm-2.47,42.22L483.49,116h9.45l2.28,21.86ZM513,148.31l.47-37H511.3L503,144.14h-7l6.5-32.79h-3.19l.11-9.33h14.06l.06-6.66h11.46l-.18,6.66h16.06l-.22,9.33H536l5.9,32.79h-7l-7.79-32.79h-2.24l-.47,37Z"/><path class="cls-1" d="M566.57,148.11l.61-71.63L558,144H552L558,76.48h-3.9l.22-9.34h13l0-11h12l0,11h9.92L589,76.48h-9.92l-.61,71.63ZM585.31,119l-5.64-34.57h8.27L591.57,119Zm25,29,.52-71.43h-2.72l-11.29,64H589.2l8.11-64h-4.6l.09-9.44H611l0-11h11.34l0,11h18.91L641,76.58h-5.08l6.78,64h-7.8l-9.85-64h-3L621.48,148Z"/><path class="cls-1" d="M273.87,199.73q-8.4,0-13.76-4.69a14,14,0,0,1-4.81-11,14.46,14.46,0,0,1,4.84-11.17,17.53,17.53,0,0,1,12.43-4.55q7.88,0,12,4.24,3.59,3.55,3.65,9.61l-.13,1c-.08,1-1.19,1.53-3.34,1.53H263.18q.31,6,3.61,9a11.1,11.1,0,0,0,7.73,3,11.43,11.43,0,0,0,6.17-1.41c2.5-1.13,4.1-1.2,4.78-.2s.6,1.67-.25,2Q280.79,199.73,273.87,199.73ZM263,182h17.89a6,6,0,0,0,0-1.41,9.72,9.72,0,0,0-2.76-7,7.28,7.28,0,0,0-5.53-2.21,8.69,8.69,0,0,0-5.83,2.32Q263.63,176.55,263,182Z"/><path class="cls-1" d="M324,199.73q-8.4,0-13.76-4.69a14,14,0,0,1-4.81-11,14.43,14.43,0,0,1,4.84-11.17,17.51,17.51,0,0,1,12.43-4.55q7.88,0,12,4.24,3.6,3.55,3.66,9.61l-.13,1c-.08,1-1.2,1.53-3.35,1.53H313.28q.33,6,3.62,9a11.1,11.1,0,0,0,7.73,3,11.43,11.43,0,0,0,6.17-1.41q3.75-1.69,4.77-.2c.69,1,.6,1.67-.25,2Q330.91,199.73,324,199.73ZM313.12,182H331a5,5,0,0,0,.06-1.41,9.76,9.76,0,0,0-2.76-7,7.3,7.3,0,0,0-5.53-2.21,8.67,8.67,0,0,0-5.83,2.32Q313.74,176.55,313.12,182Z"/><path class="cls-1" d="M370,199.73q-6.47,0-9.18-3a9.67,9.67,0,0,1-2.15-6.62l-.16-17.87h-2.29c-2.15,0-3.23-.46-3.24-1.39s1-1.42,3.08-1.5l2.62-.17.54-7.24c0-1,1.22-1.47,3.55-1.47s3.5.46,3.51,1.36l.07,7.3h6.86c2.11,0,3.16.53,3.17,1.58s-1,1.53-3.14,1.53h-6.86l.17,18a8.22,8.22,0,0,0,1.52,5.26,3.68,3.68,0,0,0,2.91,1.08l1.81-.17q3.62-1.19,4.14.39t-1.56,2.1A17.56,17.56,0,0,1,370,199.73Z"/><path class="cls-1" d="M399.44,199c-2.6,0-3.91-.45-3.92-1.35l-.25-27.15c0-.91,1.13-1.36,3.42-1.36s3.48.49,3.58,1.47l.07.9q-.66.92,2.55-1.07a12.83,12.83,0,0,1,7.31-2.09l2.16.39c1.61.27,2.33.81,2.16,1.64q-.58,2.2-4.28,1.64l-1.22-.17a6.34,6.34,0,0,0-3.41,1.42,14.53,14.53,0,0,0-4.39,5.88l.17,18.55C403.4,198.56,402.08,199,399.44,199Z"/><path class="cls-1" d="M448.88,199.73q-8.42,0-13.76-4.69a14,14,0,0,1-4.81-11,14.43,14.43,0,0,1,4.84-11.17,17.51,17.51,0,0,1,12.43-4.55q7.86,0,12,4.24,3.6,3.55,3.65,9.61l-.12,1c-.08,1-1.2,1.53-3.35,1.53H438.18q.33,6,3.62,9a11.09,11.09,0,0,0,7.72,3,11.45,11.45,0,0,0,6.18-1.41q3.75-1.69,4.77-.2c.68,1,.6,1.67-.25,2Q455.81,199.73,448.88,199.73ZM438,182h17.89a5.58,5.58,0,0,0,.06-1.41,9.76,9.76,0,0,0-2.76-7,7.31,7.31,0,0,0-5.54-2.21,8.7,8.7,0,0,0-5.83,2.32Q438.65,176.55,438,182Z"/><path class="cls-1" d="M499,199.73q-8.42,0-13.77-4.69a14,14,0,0,1-4.81-11,14.5,14.5,0,0,1,4.84-11.17,17.54,17.54,0,0,1,12.44-4.55q7.86,0,12,4.24,3.6,3.55,3.65,9.61l-.12,1c-.08,1-1.2,1.53-3.35,1.53H488.29q.31,6,3.61,9a11.11,11.11,0,0,0,7.73,3,11.47,11.47,0,0,0,6.18-1.41q3.75-1.69,4.77-.2c.68,1,.6,1.67-.25,2C507.39,198.86,503.6,199.73,499,199.73ZM488.13,182H506a6,6,0,0,0,.05-1.41,9.71,9.71,0,0,0-2.75-7,7.32,7.32,0,0,0-5.54-2.21,8.69,8.69,0,0,0-5.83,2.32Q488.76,176.55,488.13,182Z"/><path class="cls-1" d="M537.32,199.73a6.11,6.11,0,0,1-4-1.13,3.1,3.1,0,0,1-1.36-2.15,3.05,3.05,0,0,1,1.29-2.26,5.94,5.94,0,0,1,4-1.14,6.13,6.13,0,0,1,4.08,1.14,3.12,3.12,0,0,1,1.33,2.26,3,3,0,0,1-1.32,2.15A6.15,6.15,0,0,1,537.32,199.73Z"/><path class="cls-1" d="M579.23,199.73q-8.41,0-13.63-4.69a15.26,15.26,0,0,1,.43-22.26q5.1-4.44,13.31-4.44,6.78,0,10.52,3c.49.34.52.72.08,1.14q-2.48,2.59-5.85.51a6.64,6.64,0,0,0-4.52-1.42,10,10,0,0,0-7.3,3.31q-3.27,3.31-3.21,9.19t3.25,9.25a10,10,0,0,0,7.36,3.25,8.62,8.62,0,0,0,5.76-1.75q3.48-2.2,4.81-.54c.88,1.11,1,1.86.46,2.24Q586.69,199.74,579.23,199.73Z"/><path class="cls-1" d="M614.53,199c-2.6,0-3.91-.45-3.92-1.35l-.25-27.15c0-.91,1.13-1.36,3.42-1.36s3.5.51,3.65,1.53l.21,1.35A17.42,17.42,0,0,1,629,168.34q12.31,0,12.42,11.59l.16,17.71c0,.9-1.31,1.35-3.95,1.35s-4-.45-4-1.35l-.16-17.14c0-3.25-.7-5.64-2-7.19a5.09,5.09,0,0,0-4.05-1.64,8.43,8.43,0,0,0-3.82.91,26.14,26.14,0,0,0-5.28,3.9l.19,21.16C618.49,198.54,617.17,199,614.53,199Z"/><path class="cls-2" d="M108.65,41.79A11.79,11.79,0,1,1,96.86,53.58a11.79,11.79,0,0,1,11.79-11.79m0-7.21a19,19,0,1,0,19,19,19,19,0,0,0-19-19Z"/><path class="cls-2" d="M143.25,66.86a10.77,10.77,0,1,1-10.76,10.77,10.77,10.77,0,0,1,10.76-10.77m0-6.89a17.66,17.66,0,1,0,17.66,17.66A17.67,17.67,0,0,0,143.25,60Z"/><path class="cls-2" d="M175.89,81a8.06,8.06,0,0,1,1.3,16,8.38,8.38,0,0,1-1.32.1,8.05,8.05,0,0,1-1.3-16,8.4,8.4,0,0,1,1.32-.11m0-6.91h0a15.47,15.47,0,0,0-2.45.2,15,15,0,0,0,2.43,29.74,15.47,15.47,0,0,0,2.45-.2,15,15,0,0,0-2.43-29.74Z"/><path class="cls-2" d="M108.65,171.79a4.58,4.58,0,0,1-4.58-4.56V70.92a4.59,4.59,0,0,1,9.17,0v96.31A4.58,4.58,0,0,1,108.65,171.79Z"/><path class="cls-2" d="M143.25,165.79a4.58,4.58,0,0,1-4.58-4.58V94.41a4.59,4.59,0,1,1,9.17,0v66.8A4.58,4.58,0,0,1,143.25,165.79Z"/><path class="cls-2" d="M146.27,127.58a4.59,4.59,0,0,1-2-8.74l26-12.19.64-6.79c.35-2.51,2.37-1.28,4.88-1s4.56-.32,4.22,2.19l-1,9.26a4.58,4.58,0,0,1-2.6,3.54l-28.3,13.25A4.6,4.6,0,0,1,146.27,127.58Z"/><path class="cls-2" d="M76,81.32a9,9,0,1,1-9,9,9,9,0,0,1,9-9m0-7.21A16.24,16.24,0,1,0,92.27,90.35,16.25,16.25,0,0,0,76,74.11Z"/><path class="cls-2" d="M47.38,98.91a7.68,7.68,0,0,1,1.06.08,6.46,6.46,0,1,1-1.06-.08m0-6a12.45,12.45,0,0,0-2,24.74,12.66,12.66,0,0,0,2,.16,12.45,12.45,0,0,0,2-24.73,12.67,12.67,0,0,0-2-.17Z"/><path class="cls-2" d="M76,171.79c-2.53,0-4-.64-4.33-1.46l-.26-65.8a4.63,4.63,0,0,1,9.18,0v63.23A4.34,4.34,0,0,1,76,171.79Z"/><path class="cls-2" d="M75.32,139.9a4.52,4.52,0,0,1-1.79-.37L48.62,128.91a4.6,4.6,0,0,1-2.75-3.6l-1-7.11A4.59,4.59,0,1,1,54,117l.64,4.53,22.51,9.6a4.59,4.59,0,0,1-1.8,8.81Z"/><path class="cls-2" d="M188.13,148.35c-12.85-3.19-27.82-7.11-46.9-7.11-25.59,1.89-36.53,7.47-57.44,20.56-10.82,5.41-19.07,5.5-32.18,6.31,0,0,60.47,62.74,131.89-9.9,0,0-63.29,85.35-142.89,9.32l-.43-.41L24.35,179.85A110.49,110.49,0,0,0,216.28,141s.28-1,.39-1.42C216.67,139.61,201.92,151.33,188.13,148.35Z"/><path class="cls-2" d="M39.93,166.88C8.84,128,13.05,68.7,51.62,37.18c16.65-14.61,38.8-21.6,60.74-21.82,21.79-.23,44,6,61.89,18.61a107.51,107.51,0,0,1,23.07,23c3.27,4.3,6.42,8.78,9.27,13.36,2.18,3.51,7,10.9,7,11a12.86,12.86,0,0,0,.14-1.9,19.77,19.77,0,0,0-.17-2.3,36.73,36.73,0,0,0-1-4.52,89.47,89.47,0,0,0-4-11.5c-9.19-21.79-27.94-39.27-48.94-49.64a110.54,110.54,0,0,0-135.47,168c1.12,1.4,2.28,2.77,3.46,4.1l12.7-16.38Z"/></g></g></svg>